<svg id="Layer_1" data-name="Layer 1" xmlns="http://www.w3.org/2000/svg" viewBox="0 0 1024 1024">
  <defs>
    <style>
      .cls-1 {
        fill: #000000;
      }
      .cls-2 {
        fill: #1aa1aa;
      }
    </style>
  </defs>
  <title>BQardi logo</title>
  <path class="cls-1" d="M90.7,0s86.05,89.1,253.94,208.57c164.89,106.56,84.42,41.58,294.83,165.68,214.36,128,289.66,263.84,337.7,374.26,29.68,68.22,46.83,272.24,46.83,272.24S922.43,736.16,809,663.39c-66.68-42.77-97-61.28-228.22-116.95-85.63-36.34-210.15-102-321.21-213.77C124.6,196.88,90.7,0,90.7,0Z"/>
  <path class="cls-1" d="M1022.68,1020.75S914.93,845.27,717.85,782.53c-239.8-54.67-186.64-27.91-333.12-68.62C105,631.56,0,233.81,0,233.81S107.85,441.83,361.13,525c88.45,29,257.45,40.61,398,113.24C930,726.48,1022.68,1020.75,1022.68,1020.75Z"/>
  <path class="cls-2" d="M1023.34,1024s-82.1-35.8-286.79-66.92c-245.57-16.45-188.77,1.65-340-15.63C107.13,903.91,9.33,523.77,9.33,523.77s70,192.36,333.51,234.85c92,14.84,260.73-.19,411.25,49.53C937,868.55,1023.34,1024,1023.34,1024Z"/>
</svg>